<?xml version="1.0" encoding="UTF-8"?>
<svg id="Layer_1" data-name="Layer 1" xmlns="http://www.w3.org/2000/svg" viewBox="0 0 1080 400">
  <defs>
    <style>
      .cls-1 {
        fill: #fff;
      }

      .cls-2 {
        fill: #015da6;
      }
    </style>
  </defs>
  <rect class="cls-2" width="1080" height="400"/>
  <g>
    <path class="cls-1" d="M334.49,156.17v-16.17h14.47v-6.81c0-7.83,3.64-16.59,7.69-20.27,6.87-6.25,13.83-11.48,38.75-8.61l-4.22,19.94c-2.84-.34-11.21-1.66-15.11,2.75-1.38,1.57-2.93,4.09-2.93,7.72v5.28h16.68v16.17h-16.68v71.84h-24.17v-71.84h-14.47Z"/>
    <path class="cls-1" d="M436.77,140l5.15,16.17h-17.71v40.32c0,4.09,.53,12.63,9.91,12.57,4.2-.03,10.66-1.51,10.66-1.51l6.5,19.51s-11.86,2.98-23.55,2.98c-7.23,0-15.24-.93-22.08-8.31-4.33-4.67-5.63-12.11-5.63-16.54V125.47l24.17-8.39v22.92h12.56Z"/>
    <path class="cls-1" d="M529.25,228.01l-15.45-57.43-13.12,47.91c-1.42,5.59-6.45,9.51-12.23,9.51h-14.73l-28.27-88.01h16.11c3.61,0,6.8,2.32,7.92,5.75l17.55,54h.34l16.08-59.75h15.39c3.13,0,5.87,2.09,6.7,5.11l14.94,54.47,19.08-59.58h14.97c3.63,0,6.21,3.52,5.12,6.98l-22.77,72.21c-1.66,5.25-6.52,8.82-12.03,8.82h-15.61Z"/>
    <polygon class="cls-1" points="695.05 156.34 695.05 140 670.87 140 670.87 228.01 695.05 228.01 695.05 156.34"/>
    <rect class="cls-1" x="734.88" y="111.49" width="24.17" height="19.92"/>
    <rect class="cls-1" x="734.88" y="140" width="24.17" height="88.01"/>
    <g>
      <path class="cls-1" d="M213.46,207.38c.12-2.18-.35-4.05-1.15-5.68-.19,.29-.35,.59-.56,.86-1.59,1.99-3.57,3.55-5.96,4.68-2.38,1.14-4.94,1.9-7.66,2.3-2.72,.4-5.28,.6-7.66,.6-3.52,0-6.92-.43-10.21-1.28-3.29-.85-6.16-2.15-8.6-3.91-2.44-1.76-4.4-4.06-5.87-6.89-1.48-2.84-2.21-6.3-2.21-10.39h-25.88c-.11,7.49,1.25,13.96,4.09,19.41,2.84,5.45,6.67,9.93,11.49,13.45,4.82,3.52,10.38,6.1,16.68,7.75,5.29,1.38,10.73,2.15,16.31,2.37,6.15-.51,26.09-3.66,27.2-23.26Z"/>
      <path class="cls-1" d="M235.67,175.15c-2.89-4.37-6.33-7.86-10.3-10.47-3.97-2.61-7.97-4.51-12-5.7-4.03-1.19-7.18-2.01-9.45-2.47-7.6-1.93-13.76-3.52-18.47-4.77-4.71-1.25-8.4-2.5-11.06-3.75-2.67-1.25-4.46-2.61-5.36-4.09-.91-1.47-1.36-3.4-1.36-5.79,0-2.61,.57-4.77,1.7-6.47,1.13-1.7,2.58-3.12,4.34-4.26,1.76-1.13,3.72-1.93,5.87-2.38,2.15-.45,4.31-.68,6.47-.68,3.29,0,6.33,.28,9.11,.85,2.78,.57,5.25,1.53,7.41,2.89,2.15,1.36,3.89,3.23,5.19,5.62,1.3,2.38,2.07,5.39,2.3,9.02h25.88c0-7.04-1.34-13.02-4-17.96-2.67-4.94-6.27-8.99-10.81-12.17-4.54-3.18-9.73-5.47-15.58-6.89-5.85-1.42-11.95-2.13-18.3-2.13-5.45,0-10.9,.74-16.34,2.21-5.45,1.48-10.33,3.74-14.64,6.81-4.31,3.07-7.8,6.89-10.47,11.49-2.67,4.6-4,10.02-4,16.26,0,5.56,1.05,10.3,3.15,14.21,2.1,3.92,4.85,7.18,8.26,9.79,3.41,2.61,7.26,4.74,11.58,6.38,4.31,1.65,8.74,3.04,13.28,4.17,4.43,1.25,8.79,2.38,13.11,3.4,4.31,1.02,8.17,2.21,11.58,3.58,1.53,.61,2.92,1.31,4.18,2.06v-.02s1.77,.83,3.81,2.84c.08,.08,.18,.15,.26,.22,.39,.38,.73,.79,1.05,1.21,2.94,3.53,5.87,9.5,4.82,19.01-1.59,14.42-15.37,22.53-27.45,23.53,.02,0,.03,0,.05,0,8.28,0,15.58-.97,21.88-2.89,6.3-1.93,11.58-4.62,15.83-8.09,4.26-3.46,7.46-7.58,9.62-12.34,2.15-4.77,3.23-9.93,3.23-15.49,0-6.81-1.45-12.4-4.34-16.77Z"/>
    </g>
    <path class="cls-1" d="M331.6,164.94c-2.16-5.73-5.22-10.61-9.19-14.64-1.94-1.96-4.08-3.7-6.4-5.24-3.56-2.04-12.44-5.66-24.24-.19-6.58,3.05-10.54,8.9-12.75,13.42,2.72-1.64,6.12-2.46,10.2-2.46s7.52,.82,10.3,2.47c2.78,1.65,4.99,3.77,6.64,6.38,1.64,2.61,2.81,5.62,3.49,9.02,.68,3.4,1.02,6.87,1.02,10.38s-.34,6.95-1.02,10.3c-.68,3.35-1.85,6.36-3.49,9.02-1.65,2.67-3.86,4.8-6.64,6.38-2.78,1.59-6.21,2.38-10.3,2.38s-7.49-.79-10.21-2.38c-2.72-1.59-4.91-3.72-6.55-6.38-1.65-2.67-2.81-5.67-3.49-9.02-.68-3.35-1.02-6.78-1.02-10.3s.34-6.98,1.02-10.38c0,0,0-.01,0-.02,1.07-6.17,3.65-14.6,9.89-22.01,9.52-11.31,24.72-12.35,33.98-8.48-1.54-.83-3.12-1.6-4.81-2.26-5.62-2.21-11.89-3.32-18.81-3.32s-13.17,1.11-18.73,3.32c-5.56,2.21-10.33,5.34-14.3,9.36-3.97,4.03-7.04,8.91-9.19,14.64-2.16,5.73-3.23,12.12-3.23,19.15s1.08,13.39,3.23,19.07c2.15,5.68,5.22,10.53,9.19,14.56,3.97,4.03,8.74,7.12,14.3,9.28,5.56,2.15,11.8,3.23,18.73,3.23s13.19-1.08,18.81-3.23c5.62-2.15,10.41-5.25,14.38-9.28,3.97-4.03,7.04-8.88,9.19-14.56,2.15-5.67,3.23-12.03,3.23-19.07s-1.08-13.42-3.23-19.15Z"/>
    <g>
      <path class="cls-1" d="M836.52,143.82c-4.45-1.83-12.11-3.4-21.7,1.05-6.58,3.05-10.55,8.91-12.76,13.43,2.56-1.64,5.69-2.48,9.41-2.48,10.33,0,16.29,5.05,17.88,15.15h23.66c-.17-2.84-.6-5.48-1.28-7.94-.68-2.45-1.62-4.72-2.81-6.79-2.38-4.14-5.48-7.6-9.28-10.38-1.01-.74-2.05-1.41-3.13-2.05Z"/>
      <path class="cls-1" d="M830.21,194.3c-.8,5.45-2.75,9.79-5.87,13.02-3.12,3.23-7.58,4.85-13.36,4.85-3.74,0-6.92-.85-9.53-2.55-2.61-1.7-4.68-3.89-6.21-6.55-1.53-2.67-2.64-5.64-3.32-8.94-.68-3.29-1.02-6.52-1.02-9.7s.32-6.31,.94-9.51c.93-6.24,3.42-15.33,10.09-23.24,8.95-10.62,22.9-12.19,32.23-9.13-2.33-1.17-4.8-2.14-7.43-2.89-4.82-1.36-9.85-2.04-15.07-2.04-7.15,0-13.51,1.19-19.07,3.58-5.56,2.38-10.27,5.7-14.13,9.96-3.86,4.26-6.78,9.31-8.77,15.15-1.99,5.85-2.98,12.17-2.98,18.98s1.08,12.63,3.23,18.13c2.15,5.51,5.16,10.24,9.02,14.21,3.86,3.97,8.54,7.07,14.05,9.28,5.5,2.21,11.55,3.32,18.13,3.32,11.69,0,21.28-3.07,28.77-9.19,7.49-6.13,12.03-15.04,13.62-26.73h-23.32Z"/>
    </g>
    <g>
      <path class="cls-1" d="M609.77,156.85c2.72-2.04,6.47-3.07,11.24-3.07,2.15,0,4.17,.14,6.04,.43,1.87,.29,3.52,.85,4.94,1.7,1.42,.85,2.55,2.04,3.4,3.58s1.28,3.6,1.28,6.21c.11,2.5-.62,4.4-2.21,5.7-.34,.28-.73,.54-1.13,.8,4.69-2.35,14.47-8.68,14.64-20,.18-11.76-14.51-13.91-15.61-14.05-3.42-.36-6.81-.54-10.16-.54-4.88,0-9.73,.48-14.56,1.45-4.83,.97-9.17,2.58-13.02,4.85-3.86,2.27-7.04,5.28-9.53,9.02-2.5,3.74-3.92,8.46-4.26,14.13h24.17c.45-4.77,2.04-8.17,4.77-10.21Z"/>
      <path class="cls-1" d="M627.98,174.39s.02,0,.05-.01c-.02,0-.03,0-.05,.01Z"/>
      <path class="cls-1" d="M657.26,149.79c-2.22-3.01-5.05-5.38-8.45-7.16,1.69,5.38,1.68,11.46-1.88,17.79-4,7.11-10.92,10.9-15.2,12.67-.79,.37-1.68,.69-2.63,.97-.7,.22-1.12,.33-1.12,.33-2.72,.68-5.85,1.19-9.36,1.53-3.52,.34-7.09,.8-10.72,1.36-3.63,.57-7.24,1.34-10.81,2.3-3.58,.97-6.75,2.41-9.53,4.34-2.78,1.93-5.05,4.51-6.81,7.75-1.76,3.23-2.64,7.35-2.64,12.34,0,4.54,.77,8.46,2.3,11.75,1.53,3.29,3.66,6.02,6.38,8.17,2.72,2.16,5.9,3.74,9.53,4.77,3.63,1.02,7.55,1.53,11.75,1.53,5.45,0,10.78-.8,16-2.38,5.22-1.59,9.76-4.37,13.62-8.34l.08,8.51h23.07v-65.37c0-5.33-1.19-9.62-3.58-12.85Zm-20.6,44.18c0,1.36-.14,3.18-.43,5.45-.28,2.27-1.05,4.51-2.3,6.73-1.25,2.21-3.18,4.12-5.79,5.7-2.61,1.59-14.22,5.74-21.45,.09-3.77-2.94-7.77-12.72-.08-18.22,1.32-.94,2.84-1.73,4.6-2.3,1.76-.57,3.55-1.02,5.36-1.36,1.93-.34,3.86-.62,5.79-.85,1.93-.23,3.77-.51,5.53-.85,1.76-.34,3.41-.77,4.94-1.28,1.53-.51,2.81-1.22,3.83-2.13v9.02Z"/>
    </g>
    <g>
      <path class="cls-1" d="M889.99,156.85c2.72-2.04,6.47-3.07,11.24-3.07,2.15,0,4.17,.14,6.04,.43,1.87,.29,3.52,.85,4.94,1.7,1.42,.85,2.55,2.04,3.4,3.58s1.28,3.6,1.28,6.21c.11,2.5-.62,4.4-2.21,5.7-.34,.28-.73,.55-1.13,.8,4.69-2.35,14.47-8.68,14.64-20,.18-11.76-14.5-13.91-15.61-14.05-3.42-.36-6.81-.54-10.16-.54-4.88,0-9.73,.48-14.56,1.45-4.83,.97-9.17,2.58-13.02,4.85-3.86,2.27-7.04,5.28-9.53,9.02-2.5,3.74-3.92,8.46-4.26,14.13h24.17c.45-4.77,2.04-8.17,4.77-10.21Z"/>
      <path class="cls-1" d="M908.2,174.39s.02,0,.05-.01c-.02,0-.03,0-.05,.01Z"/>
      <path class="cls-1" d="M937.48,149.79c-2.22-3.01-5.05-5.38-8.45-7.16,1.69,5.38,1.68,11.46-1.88,17.79-4,7.11-10.92,10.9-15.2,12.67-.79,.37-1.68,.69-2.63,.97-.7,.22-1.12,.33-1.12,.33-2.72,.68-5.85,1.19-9.36,1.53-3.52,.34-7.09,.8-10.72,1.36-3.63,.57-7.24,1.34-10.81,2.3-3.58,.97-6.75,2.41-9.53,4.34-2.78,1.93-5.05,4.51-6.81,7.75-1.76,3.23-2.64,7.35-2.64,12.34,0,4.54,.77,8.46,2.3,11.75,1.53,3.29,3.66,6.02,6.38,8.17,2.72,2.16,5.9,3.74,9.53,4.77,3.63,1.02,7.55,1.53,11.75,1.53,5.45,0,10.78-.8,16-2.38,5.22-1.59,9.76-4.37,13.62-8.34l.08,8.51h23.07v-65.37c0-5.33-1.19-9.62-3.58-12.85Zm-20.6,44.18c0,1.36-.14,3.18-.43,5.45-.28,2.27-1.05,4.51-2.3,6.73-1.25,2.21-3.18,4.12-5.79,5.7-2.61,1.59-14.22,5.74-21.45,.09-3.77-2.94-7.77-12.72-.08-18.22,1.32-.94,2.84-1.73,4.6-2.3,1.76-.57,3.55-1.02,5.36-1.36,1.93-.34,3.86-.62,5.79-.85,1.93-.23,3.77-.51,5.53-.85,1.76-.34,3.41-.77,4.94-1.28,1.53-.51,2.81-1.22,3.83-2.13v9.02Z"/>
    </g>
    <path class="cls-1" d="M726.09,141.02c-3.43-1-7.77-1.61-12.35-.64-10.84,2.29-17.05,14.23-18.69,23.14-1.94,10.55,0,17.7,0,17.7,0-11.36,5.88-19.49,16.69-21.82,8.6-1.86,14.35,1.83,14.35,1.83v-20.2Z"/>
    <g>
      <g>
        <path class="cls-1" d="M284.63,273.02c0-7.76,5.67-13.65,13.61-13.65,3.71,0,6.91,1.62,9.17,3.58l-3.07,3.75c-1.45-1.24-3.37-2.3-5.72-2.3-5.12,0-8.36,3.63-8.36,8.53s3.24,8.7,8.36,8.7c2.39,0,4.44-1.07,5.97-2.64l3.33,3.63c-2.56,2.47-5.97,4.05-9.55,4.05-8.1,0-13.74-5.89-13.74-13.65Z"/>
        <path class="cls-1" d="M314.32,273.02c0-7.76,5.59-13.65,13.48-13.65s13.39,5.89,13.39,13.65-5.59,13.65-13.39,13.65-13.48-5.89-13.48-13.65Zm21.54,0c0-5.03-3.37-8.83-8.06-8.83s-8.15,3.8-8.15,8.83,3.41,8.83,8.15,8.83,8.06-3.8,8.06-8.83Z"/>
        <path class="cls-1" d="M355.22,281.63h10.54v4.61h-16v-26.45h5.46v21.84Z"/>
        <path class="cls-1" d="M379.58,281.63h10.54v4.61h-16v-26.45h5.46v21.84Z"/>
        <path class="cls-1" d="M404.15,281.85h10.92v4.39h-16.59v-26.45h16.17v4.39h-10.49v6.53h9.21v4.18h-9.21v6.95Z"/>
        <path class="cls-1" d="M439.47,273.06h8.1v12.33h-.81l-1.24-1.28h-.17c-2.47,1.58-5.89,2.56-8.49,2.56-8.4,0-14.03-5.89-14.03-13.65s5.63-13.65,13.69-13.65c3.63,0,6.57,1.37,8.66,2.9l-3.11,3.84c-1.41-1.11-3.28-1.71-5.37-1.71-4.99,0-8.23,3.71-8.23,8.62s3.24,8.83,8.83,8.83c1.96,0,4.18-.55,5.5-1.58v-3.5h-3.33v-3.71Z"/>
        <path class="cls-1" d="M462.68,281.85h10.92v4.39h-16.59v-26.45h16.17v4.39h-10.49v6.53h9.21v4.18h-9.21v6.95Z"/>
        <path class="cls-1" d="M495.22,273.02c0-7.76,5.59-13.65,13.48-13.65s13.39,5.89,13.39,13.65-5.59,13.65-13.39,13.65-13.48-5.89-13.48-13.65Zm21.54,0c0-5.03-3.37-8.83-8.06-8.83s-8.15,3.8-8.15,8.83,3.41,8.83,8.15,8.83,8.06-3.8,8.06-8.83Z"/>
        <path class="cls-1" d="M546.84,264.79h-10.28v6.53h8.79v4.61h-8.79v10.32h-5.89v-26.45h16.17v4.99Z"/>
        <path class="cls-1" d="M568.72,286.24v-26.45h5.46v26.45h-5.46Z"/>
        <path class="cls-1" d="M601.65,264.4h-6.91v21.84h-5.46v-21.84h-6.95v-4.61h19.32v4.61Z"/>
        <path class="cls-1" d="M664.23,281.85h10.92v4.39h-16.59v-26.45h16.17v4.39h-10.49v6.53h9.21v4.18h-9.21v6.95Z"/>
        <path class="cls-1" d="M696.77,273.02c0-7.76,5.67-13.65,13.61-13.65,3.71,0,6.91,1.62,9.17,3.58l-3.07,3.75c-1.45-1.24-3.37-2.3-5.72-2.3-5.12,0-8.36,3.63-8.36,8.53s3.24,8.7,8.36,8.7c2.39,0,4.44-1.07,5.97-2.64l3.33,3.63c-2.56,2.47-5.97,4.05-9.55,4.05-8.1,0-13.74-5.89-13.74-13.65Z"/>
        <path class="cls-1" d="M726.46,273.02c0-7.76,5.59-13.65,13.48-13.65s13.39,5.89,13.39,13.65-5.59,13.65-13.39,13.65-13.48-5.89-13.48-13.65Zm21.54,0c0-5.03-3.37-8.83-8.06-8.83s-8.15,3.8-8.15,8.83,3.41,8.83,8.15,8.83,8.06-3.8,8.06-8.83Z"/>
        <path class="cls-1" d="M791.25,286.24h-5.2l-1.07-16.21-6.31,15.83h-4.44l-6.4-15.78-1.07,16.17h-4.99l2.09-26.45h4.86l7.89,19.02,7.89-19.02h4.61l2.13,26.45Z"/>
        <path class="cls-1" d="M829.86,286.24h-5.2l-1.07-16.21-6.31,15.83h-4.44l-6.4-15.78-1.07,16.17h-4.99l2.09-26.45h4.86l7.89,19.02,7.89-19.02h4.61l2.13,26.45Z"/>
        <path class="cls-1" d="M844.79,281.85h10.92v4.39h-16.59v-26.45h16.17v4.39h-10.49v6.53h9.21v4.18h-9.21v6.95Z"/>
        <path class="cls-1" d="M879.17,286.24c-2.39-2.99-4.48-6.27-6.44-10.24h-2.99v10.24h-5.46v-26.45h9.09c6.95,0,10.37,2.64,10.37,7.81,0,3.2-1.83,6.36-5.97,7.55,2.18,4.26,4.99,7.76,8.15,11.09h-6.74Zm-9.43-22.18v7.98h3.41c3.58,0,5.33-1.96,5.33-4.18,0-2.52-1.79-3.8-4.95-3.8h-3.8Z"/>
        <path class="cls-1" d="M892.56,273.02c0-7.76,5.67-13.65,13.61-13.65,3.71,0,6.91,1.62,9.17,3.58l-3.07,3.75c-1.45-1.24-3.37-2.3-5.72-2.3-5.12,0-8.36,3.63-8.36,8.53s3.24,8.7,8.36,8.7c2.39,0,4.44-1.07,5.97-2.64l3.33,3.63c-2.56,2.47-5.97,4.05-9.55,4.05-8.1,0-13.74-5.89-13.74-13.65Z"/>
        <path class="cls-1" d="M930.14,281.85h10.92v4.39h-16.59v-26.45h16.17v4.39h-10.49v6.53h9.21v4.18h-9.21v6.95Z"/>
      </g>
      <path class="cls-1" d="M629.51,286.09c-1.19,.52-2.54,.77-4.04,.77-1.18,0-2.29-.17-3.34-.52-1.04-.34-1.95-.85-2.71-1.53-.76-.68-1.36-1.5-1.81-2.47-.44-.97-.66-2.08-.66-3.34,0-.93,.16-1.79,.48-2.56,.32-.77,.76-1.47,1.31-2.1,.55-.63,1.19-1.19,1.9-1.68,.71-.49,1.45-.92,2.21-1.29-.71-.86-1.31-1.72-1.79-2.58-.48-.86-.72-1.87-.72-3.02,0-.91,.19-1.73,.57-2.47,.38-.74,.89-1.37,1.53-1.9,.64-.53,1.37-.93,2.19-1.22,.82-.28,1.68-.42,2.56-.42,1.01,0,1.95,.14,2.82,.41,.87,.27,1.63,.67,2.29,1.2,.65,.53,1.17,1.19,1.55,1.97,.38,.79,.57,1.7,.57,2.73,0,1.55-.45,2.85-1.35,3.91-.9,1.06-2.01,1.94-3.34,2.66l3.39,4.17c.27-.49,.48-1,.63-1.53,.15-.53,.26-1.06,.33-1.6h4.54c-.12,1.18-.39,2.32-.81,3.43-.42,1.11-1,2.13-1.73,3.06l5.35,6.23h-6.42l-2.14-2.62c-1.06,1.03-2.18,1.81-3.37,2.32Zm-5.25-10.62c-.44,.27-.84,.59-1.18,.96-.34,.37-.62,.77-.83,1.22s-.31,.93-.31,1.47c0,.47,.1,.92,.31,1.35,.21,.43,.49,.8,.83,1.11,.34,.31,.74,.55,1.2,.74,.45,.18,.93,.28,1.42,.28,.93,0,1.75-.22,2.45-.65,.7-.43,1.36-.99,1.97-1.68l-4.5-5.49c-.47,.2-.92,.43-1.36,.7Zm4.89-11.47c-.48-.49-1.04-.74-1.68-.74s-1.19,.22-1.66,.65c-.47,.43-.7,.99-.7,1.68,0,.84,.22,1.55,.66,2.14,.44,.59,.91,1.19,1.4,1.81,.74-.47,1.37-.97,1.9-1.51,.53-.54,.79-1.29,.79-2.25,0-.69-.24-1.28-.72-1.77Z"/>
      <rect class="cls-1" x="681.33" y="270.53" width="8.27" height="4.13"/>
    </g>
  </g>
</svg>